<?xml version="1.0" encoding="UTF-8"?>
<svg version="1.1" xmlns="http://www.w3.org/2000/svg" width="200" height="200">
<path d="M0 0 C0.75925781 0.65355469 1.51851562 1.30710937 2.30078125 1.98046875 C2.90535156 2.49996094 3.50992188 3.01945312 4.1328125 3.5546875 C20.52472862 18.79494675 29.41910198 40.72163918 30.71484375 62.7890625 C31.34425023 80.62129234 28.72144337 101.56993145 16.74609375 115.83203125 C15.30078125 116.98046875 15.30078125 116.98046875 12.80078125 117.35546875 C10.30078125 116.98046875 10.30078125 116.98046875 8.55078125 115.73046875 C7.12513047 113.73455766 6.6701933 112.40050592 6.30078125 109.98046875 C6.87402344 108.09619141 6.87402344 108.09619141 7.84765625 106.14453125 C8.19699219 105.41758057 8.54632813 104.69062988 8.90625 103.94165039 C9.28394531 103.17071045 9.66164062 102.39977051 10.05078125 101.60546875 C18.91764676 82.44314456 20.12915155 61.95319546 13.234375 41.875 C9.51329147 32.38193871 4.91723705 22.90451948 -2.69921875 15.98046875 C-2.69921875 15.32046875 -2.69921875 14.66046875 -2.69921875 13.98046875 C-3.68921875 13.65046875 -4.67921875 13.32046875 -5.69921875 12.98046875 C-5.69921875 12.32046875 -5.69921875 11.66046875 -5.69921875 10.98046875 C-6.27027344 10.71621094 -6.84132812 10.45195313 -7.4296875 10.1796875 C-9.83081592 8.9109329 -11.84492036 7.4283589 -14.01171875 5.79296875 C-31.44971567 -6.47252394 -51.61965287 -10.5788681 -72.66796875 -7.515625 C-92.59766974 -3.65755235 -110.25579908 7.17881472 -121.8203125 23.9765625 C-133.67846471 42.93481416 -138.0960145 63.40062733 -133.66772461 85.47558594 C-129.17034171 104.12132766 -117.91079045 121.49193816 -101.69921875 131.98046875 C-82.91137779 143.14751787 -61.60302942 147.75708345 -39.94921875 142.79296875 C-38.18227551 142.24031249 -36.43064931 141.63595755 -34.69921875 140.98046875 C-33.18521484 140.41779297 -33.18521484 140.41779297 -31.640625 139.84375 C-26.77109183 137.91660641 -22.28473322 135.78502706 -17.82421875 133.04296875 C-14.53095139 131.11139846 -14.10021852 130.90308283 -10.13671875 131.66796875 C-9.33234375 132.10109375 -8.52796875 132.53421875 -7.69921875 132.98046875 C-6.94921875 136.23046875 -6.94921875 136.23046875 -6.69921875 139.98046875 C-9.75061074 143.99879534 -13.94867278 145.89552715 -18.38671875 148.04296875 C-19.10424316 148.39439941 -19.82176758 148.74583008 -20.56103516 149.10791016 C-40.70341545 158.82128703 -65.20005953 160.47137624 -86.6171875 153.72558594 C-92.96441873 151.4540393 -98.88021036 148.35908243 -104.69921875 144.98046875 C-105.57191406 144.47386719 -106.44460937 143.96726563 -107.34375 143.4453125 C-113.37674907 139.65223602 -118.58995078 134.92385139 -123.69921875 129.98046875 C-124.39015625 129.3153125 -125.08109375 128.65015625 -125.79296875 127.96484375 C-143.34468041 109.7166356 -148.34028889 85.4071582 -148.0390625 60.98828125 C-147.26665928 37.25210598 -135.57104346 16.86412246 -118.69921875 0.578125 C-84.64795062 -28.90637149 -34.47406282 -28.5764782 0 0 Z " fill="#000000" transform="translate(158.69921875,32.01953125)"/>
<path d="M0 0 C1.9375 1.0625 1.9375 1.0625 3 3 C3.08567102 7.62623483 2.44104236 9.49595158 -0.625 13 C-4 15 -4 15 -7.8125 14.9375 C-8.864375 14.628125 -9.91625 14.31875 -11 14 C-12.36952673 11.26094655 -12.12621361 9.02912668 -12 6 C-11.67 5.34 -11.34 4.68 -11 4 C-10.34 4 -9.68 4 -9 4 C-8.67 3.01 -8.34 2.02 -8 1 C-5.20129973 -0.39935013 -3.09501208 -0.25265405 0 0 Z " fill="#000000" transform="translate(166,154)"/>
</svg>
