<?xml version="1.0" encoding="UTF-8"?>
<svg version="1.1" xmlns="http://www.w3.org/2000/svg" width="300" height="300">
<path d="M0 0 C2.31 0.33 4.62 0.66 7 1 C6.835 1.721875 6.67 2.44375 6.5 3.1875 C5.91361521 5.94465705 5.91361521 5.94465705 6.0625 8.5625 C5.99377851 11.24263823 5.35282641 12.71710543 4 15 C3.34 15 2.68 15 2 15 C1.814375 16.423125 1.814375 16.423125 1.625 17.875 C1 21 1 21 -1 23 C-1.6425235 25.06874034 -1.6425235 25.06874034 -2 27 C-2.66 27 -3.32 27 -4 27 C-3.505 27.86625 -3.505 27.86625 -3 28.75 C-2 31 -2 31 -2 35 C-2.66 35 -3.32 35 -4 35 C-3.95617187 35.73605469 -3.91234375 36.47210938 -3.8671875 37.23046875 C-4.22282017 44.64645583 -10.58399973 51.36537671 -15 57 C-15.46019531 57.70125 -15.92039062 58.4025 -16.39453125 59.125 C-18.33731514 61.39394469 -19.72792923 61.82757404 -22.5625 62.6875 C-28.98593659 65.06932904 -33.23984158 69.19076778 -38 74 C-38.64710938 74.61359375 -39.29421875 75.2271875 -39.9609375 75.859375 C-43.011048 78.98108434 -44.34382768 80.99544444 -44.375 85.4375 C-44.25125 86.613125 -44.1275 87.78875 -44 89 C-42.02 89 -40.04 89 -38 89 C-37.690625 89.99 -37.690625 89.99 -37.375 91 C-34.38483164 97.5240037 -29.59948619 102.41277758 -24.625 107.5 C-19.34301372 113.16943737 -19.34301372 113.16943737 -19.375 117.6875 C-19.58125 118.780625 -19.7875 119.87375 -20 121 C-24 121 -24 121 -26.625 118.625 C-27.40875 117.75875 -28.1925 116.8925 -29 116 C-29.66 115.34 -30.32 114.68 -31 114 C-31.33 114.66 -31.66 115.32 -32 116 C-33.32 116 -34.64 116 -36 116 C-37.7143618 114.04072937 -39.38405168 112.04119788 -41 110 C-41.66 110 -42.32 110 -43 110 C-43.7734375 108.948125 -43.7734375 108.948125 -44.5625 107.875 C-48.39977575 103.34898245 -52.75717724 99.43748791 -58.80859375 98.62109375 C-61.23601952 98.62453691 -63.58889876 98.72818483 -66 99 C-67.32 101.31 -68.64 103.62 -70 106 C-70.99 106 -71.98 106 -73 106 C-73 106.66 -73 107.32 -73 108 C-73.66 108 -74.32 108 -75 108 C-75 106.68 -75 105.36 -75 104 C-76.98 104.99 -76.98 104.99 -79 106 C-79 106.66 -79 107.32 -79 108 C-80.64453125 109.69140625 -80.64453125 109.69140625 -82.8125 111.5625 C-83.87404297 112.49255859 -83.87404297 112.49255859 -84.95703125 113.44140625 C-87 115 -87 115 -90 116 C-90.68852127 117.32218028 -91.35323135 118.65690189 -92 120 C-93.55078125 121.4921875 -93.55078125 121.4921875 -95.3125 122.875 C-98.65525144 125.61688496 -101.23638287 128.66948704 -104 132 C-108.61047836 136.82004556 -108.61047836 136.82004556 -112.3828125 137.30859375 C-114.61187774 137.31208758 -116.78282999 137.221717 -119 137 C-119.38344159 134.3925972 -119.374232 132.61936847 -117.9921875 130.33203125 C-116.6875 128.6875 -116.6875 128.6875 -114 126 C-113.01 126 -112.02 126 -111 126 C-110.67 125.01 -110.34 124.02 -110 123 C-109.34 123 -108.68 123 -108 123 C-108 122.34 -108 121.68 -108 121 C-107.34 121 -106.68 121 -106 121 C-104.91829146 118.85153741 -103.85499638 116.69707165 -102.81640625 114.52734375 C-102.19572266 113.24537109 -102.19572266 113.24537109 -101.5625 111.9375 C-100.94568359 110.65166016 -100.94568359 110.65166016 -100.31640625 109.33984375 C-99.06637232 107.11797335 -97.97104862 105.60311954 -96 104 C-95.34 104 -94.68 104 -94 104 C-93.7525 103.44441406 -93.505 102.88882813 -93.25 102.31640625 C-91.77137811 99.57633505 -89.97436755 97.34376045 -88 94.9375 C-83.03971824 89.20730729 -83.03971824 89.20730729 -82 82 C-82.99 81.67 -83.98 81.34 -85 81 C-86 79.66666667 -87 78.33333333 -88 77 C-88.99 76.67 -89.98 76.34 -91 76 C-92.66666667 74.33333333 -94.33333333 72.66666667 -96 71 C-98.04651472 69.42969351 -100.12470734 67.91942311 -102.23046875 66.4296875 C-104 65 -104 65 -106 62 C-106.99 61.67 -107.98 61.34 -109 61 C-110.560234 59.23908373 -112.05275012 57.41739192 -113.5 55.5625 C-115.93187829 52.45374892 -117.70677612 50.19548258 -121 48 C-120.34 46.68 -119.68 45.36 -119 44 C-119.495 43.484375 -119.99 42.96875 -120.5 42.4375 C-122.49649241 39.19319983 -122.21564385 36.73782666 -122 33 C-119.15449988 33.66010476 -116.47674001 34.51724966 -113.75 35.5625 C-113.04359375 35.83191406 -112.3371875 36.10132813 -111.609375 36.37890625 C-111.07828125 36.58386719 -110.5471875 36.78882813 -110 37 C-109.505 36.505 -109.505 36.505 -109 36 C-106.77685889 35.7349898 -104.54541537 35.53832714 -102.3125 35.375 C-100.48138672 35.23191406 -100.48138672 35.23191406 -98.61328125 35.0859375 C-95.23587023 35.00560989 -92.29937655 35.32086566 -89 36 C-89 36.66 -89 37.32 -89 38 C-88.443125 38.04125 -87.88625 38.0825 -87.3125 38.125 C-83.74324824 39.47552769 -82.20130216 41.96577269 -80 45 C-79.86722656 45.63035156 -79.73445313 46.26070312 -79.59765625 46.91015625 C-78.76772899 49.81218948 -77.14914496 51.40807933 -75.125 53.625 C-74.42632812 54.40101563 -73.72765625 55.17703125 -73.0078125 55.9765625 C-70.97203141 58.16302902 -70.97203141 58.16302902 -68 60 C-68 60.66 -68 61.32 -68 62 C-65.69 62.66 -63.38 63.32 -61 64 C-61 63.34 -61 62.68 -61 62 C-60.401875 61.566875 -59.80375 61.13375 -59.1875 60.6875 C-56.87978667 59.12123234 -56.87978667 59.12123234 -55.62109375 56.68359375 C-53.94037699 53.90129877 -52.08992073 51.74869641 -49.875 49.375 C-45.6369463 44.76932463 -41.71250755 39.97606781 -37.84765625 35.0546875 C-36.93306641 34.03761719 -36.93306641 34.03761719 -36 33 C-35.34 33 -34.68 33 -34 33 C-33.73574219 32.40574219 -33.47148437 31.81148437 -33.19921875 31.19921875 C-31.95581716 28.91897413 -30.70815724 27.56934481 -28.8125 25.8125 C-25.26847648 22.40193343 -22.37555895 18.69098355 -19.48046875 14.72265625 C-18.99191406 14.15417969 -18.50335938 13.58570312 -18 13 C-17.34 13 -16.68 13 -16 13 C-15.67 12.01 -15.34 11.02 -15 10 C-12.41796875 9.2265625 -12.41796875 9.2265625 -9.1875 8.625 C-4.18921194 7.52994869 -4.18921194 7.52994869 -0.25 4.3125 C0.1625 3.549375 0.575 2.78625 1 2 C0.505 1.01 0.505 1.01 0 0 Z " fill="#060606" transform="translate(196,75)"/>
<path d="M0 0 C0.33 0.99 0.66 1.98 1 3 C0.01 3.495 0.01 3.495 -1 4 C-1 5.32 -1 6.64 -1 8 C0.32 8.33 1.64 8.66 3 9 C3.33 8.01 3.66 7.02 4 6 C4.66 6 5.32 6 6 6 C4.87420679 9.94027624 3.09215618 12.49862909 -0.13671875 15.0625 C-3.59626018 16.80314978 -7.23466137 16.37653386 -11 16 C-11.38344159 13.3925972 -11.374232 11.61936847 -9.9921875 9.33203125 C-8.6875 7.6875 -8.6875 7.6875 -6 5 C-5.01 5 -4.02 5 -3 5 C-2.67 4.01 -2.34 3.02 -2 2 C-1.34 2 -0.68 2 0 2 C0 1.34 0 0.68 0 0 Z " fill="#262626" transform="translate(88,196)"/>
<path d="M0 0 C-0.70554068 3.66881155 -2.27735506 6.70450534 -4 10 C-4.99 10 -5.98 10 -7 10 C-7 10.66 -7 11.32 -7 12 C-7.66 12 -8.32 12 -9 12 C-8.63333333 4.66666667 -8.63333333 4.66666667 -5.625 1.5 C-3 0 -3 0 0 0 Z " fill="#242424" transform="translate(130,171)"/>
<path d="M0 0 C0.66 0 1.32 0 2 0 C2.20625 0.66 2.4125 1.32 2.625 2 C4.19726515 5.43039669 6.22875229 8.08879976 8.5625 11.03515625 C9.96554547 12.95290591 11.0030813 14.84799761 12 17 C10.8944811 16.06409496 9.79064547 15.12620142 8.6875 14.1875 C8.07261719 13.66542969 7.45773438 13.14335937 6.82421875 12.60546875 C3.82164308 9.96294498 1.48712868 7.77501896 0 4 C0 2.68 0 1.36 0 0 Z " fill="#505050" transform="translate(156,164)"/>
<path d="M0 0 C0.66 0 1.32 0 2 0 C0.64531705 4.87685861 -1.71675909 6.48592381 -6 9 C-6 8.34 -6 7.68 -6 7 C-6.66 7 -7.32 7 -8 7 C-7.67 6.01 -7.34 5.02 -7 4 C-5.02 3.67 -3.04 3.34 -1 3 C-0.67 2.01 -0.34 1.02 0 0 Z " fill="#202020" transform="translate(92,202)"/>
<path d="M0 0 C1.80273697 1.56759737 2.88568748 2.51008921 3.4375 4.875 C4.22298661 7.84239385 6.07985196 9.64627014 8 12 C8 12.66 8 13.32 8 14 C4.63159336 12.627162 3.3079798 11.40170355 1.75 8.125 C1.41484375 7.44695312 1.0796875 6.76890625 0.734375 6.0703125 C0 4 0 4 0 0 Z " fill="#3B3B3B" transform="translate(113,117)"/>
<path d="M0 0 C0.66 0.33 1.32 0.66 2 1 C1.835 1.53625 1.67 2.0725 1.5 2.625 C0.90339788 5.45886009 0.9343632 8.1119806 1 11 C0.34 11 -0.32 11 -1 11 C-3 8 -3 8 -2.75 6.0625 C-1.97936717 3.94325972 -1.0643413 1.98677042 0 0 Z " fill="#383838" transform="translate(151,154)"/>
<path d="M0 0 C0 0.66 0 1.32 0 2 C-2.97 2 -5.94 2 -9 2 C-9 1.34 -9 0.68 -9 0 C-5.52176885 -1.15941038 -3.54104422 -0.70820884 0 0 Z " fill="#585858" transform="translate(103,111)"/>
<path d="M0 0 C2.31 0.33 4.62 0.66 7 1 C6.34 2.65 5.68 4.3 5 6 C4.34 6 3.68 6 3 6 C2.87625 5.195625 2.7525 4.39125 2.625 3.5625 C2.315625 2.2940625 2.315625 2.2940625 2 1 C1.34 0.67 0.68 0.34 0 0 Z " fill="#292929" transform="translate(196,75)"/>
<path d="M0 0 C0.99 0 1.98 0 3 0 C2.125 5.75 2.125 5.75 1 8 C0.34 8 -0.32 8 -1 8 C-0.67 5.36 -0.34 2.72 0 0 Z " fill="#666666" transform="translate(122,175)"/>
<path d="M0 0 C4.455 0.99 4.455 0.99 9 2 C9 2.66 9 3.32 9 4 C2.25 4.125 2.25 4.125 0 3 C0 2.01 0 1.02 0 0 Z " fill="#575757" transform="translate(78,110)"/>
<path d="M0 0 C1.32 0.66 2.64 1.32 4 2 C4 2.99 4 3.98 4 5 C2.35 5 0.7 5 -1 5 C-0.67 3.35 -0.34 1.7 0 0 Z " fill="#383838" transform="translate(82,207)"/>
<path d="M0 0 C0.66 0 1.32 0 2 0 C0.60746468 3.48133831 -0.63176216 4.47886033 -4 6 C-4.33 6.66 -4.66 7.32 -5 8 C-5 7.01 -5 6.02 -5 5 C-4.34 5 -3.68 5 -3 5 C-2.5359375 4.0409375 -2.5359375 4.0409375 -2.0625 3.0625 C-1 1 -1 1 0 0 Z " fill="#3E3E3E" transform="translate(110,185)"/>
<path d="M0 0 C0.66 0.33 1.32 0.66 2 1 C-0.75 5.875 -0.75 5.875 -3 7 C-2.25 2.25 -2.25 2.25 0 0 Z " fill="#383838" transform="translate(183,125)"/>
<path d="" fill="#000000" transform="translate(0,0)"/>
<path d="" fill="#060606" transform="translate(0,0)"/>
<path d="" fill="#000000" transform="translate(0,0)"/>
<path d="" fill="#707070" transform="translate(0,0)"/>
<path d="" fill="#787878" transform="translate(0,0)"/>
</svg>
