<?xml version="1.0" standalone="no"?><!DOCTYPE svg PUBLIC "-//W3C//DTD SVG 1.1//EN" "http://www.w3.org/Graphics/SVG/1.1/DTD/svg11.dtd"><svg t="1757351723307" class="icon" viewBox="0 0 1024 1024" version="1.1" xmlns="http://www.w3.org/2000/svg" p-id="12869" xmlns:xlink="http://www.w3.org/1999/xlink" width="200" height="200"><path d="M623.178667 972.885333c13.344 8.885333 17.802667 24.448 8.896 37.781334-4.448 6.666667-13.344 13.333333-22.24 13.333333-4.458667 0-11.125333-2.218667-15.573334-4.448-33.386667-22.218667-77.866667-24.437333-113.472-4.437333-13.344 6.666667-31.146667 2.218667-37.824-11.114667-6.666667-13.333333-2.218667-31.114667 11.125334-37.781333 53.397333-26.666667 117.92-24.448 169.088 6.666666z m111.242666-46.666666c13.344 8.885333 17.792 24.448 8.896 37.781333-2.229333 8.885333-11.125333 13.333333-22.250666 13.333333-4.448 0-11.125333-2.218667-15.573334-4.448-109.013333-68.885333-249.173333-75.552-364.864-15.552-13.354667 6.666667-31.146667 2.218667-37.824-11.114666-6.677333-13.333333-2.218667-31.114667 11.125334-37.781334 133.493333-68.885333 293.674667-62.218667 420.48 17.781334z m95.669334-80c13.344 8.885333 17.792 24.437333 8.896 37.781333-4.448 6.666667-13.354667 11.104-22.250667 11.104-4.448 0-11.125333-2.218667-15.573333-4.437333-162.410667-102.229333-371.541333-111.125333-542.848-22.229334-13.354667 6.666667-31.146667 2.218667-37.824-11.114666-6.677333-13.333333-2.229333-31.104 11.125333-37.770667 189.109333-97.792 418.261333-86.677333 598.474667 26.666667z m-213.589334-402.24c13.354667 6.666667 20.021333 24.437333 11.125334 37.770666-6.677333 13.333333-24.469333 20.010667-37.824 11.114667-6.666667-4.448-182.432-91.114667-266.976 42.229333-88.992 142.229333-75.637333 217.781333-75.637334 220.010667 2.218667 15.552-6.677333 28.885333-20.021333 33.333333h-6.677333c-13.354667 0-24.469333-8.896-26.698667-20-2.229333-8.896-20.021333-100.010667 82.314667-262.24 88.992-142.229333 260.309333-102.229333 340.394666-62.218666z m249.173334 177.781333c15.573333 4.448 24.48 17.781333 20.032 33.333333-13.354667 57.781333-57.845333 106.666667-115.690667 124.448-2.229333 2.229333-4.448 2.229333-6.677333 2.229334-11.125333 0-22.250667-6.666667-26.698667-20-4.448-15.562667 4.448-31.114667 17.802667-35.562667 37.824-13.333333 68.970667-44.448 77.866666-84.448 4.448-15.552 17.802667-24.448 33.376-20z m-396.010667-82.229333c6.677333 13.333333 2.229333 31.114667-11.125333 37.781333-2.218667 2.229333-57.834667 35.562667-51.168 133.333333 0 14.933333-10.24 27.829333-26.816 30.805334l-2.101334 0.32c-13.354667 0-26.698667-11.114667-26.698666-26.666667-11.125333-135.573333 75.637333-184.458667 80.096-186.677333 13.344-6.666667 31.146667-2.229333 37.813333 11.104z m146.837333-331.125334c82.325333 22.229333 142.389333 68.896 177.984 133.333334 66.752 124.458667 15.573333 277.802667 13.354667 284.469333 0 11.104-42.272 113.333333-202.453333 113.333333-11.125333 0-22.250667 0-35.605334-2.218666-15.573333-2.218667-26.698667-15.562667-24.469333-31.114667 2.218667-15.552 15.573333-26.666667 31.146667-24.448 144.608 13.333333 180.202667-68.885333 180.202666-71.114667 0 0 44.501333-135.562667-11.114666-240-26.698667-51.125333-75.648-86.677333-142.4-106.677333-253.621333-71.114667-433.824 124.448-440.501334 133.333333-11.125333 11.114667-26.698667 13.333333-40.042666 2.229334-11.125333-11.114667-13.354667-26.666667-2.229334-40 8.896-8.896 209.130667-231.125333 496.128-151.125334z m-137.930666 84.448c137.930667 8.896 204.682667 48.896 240.277333 137.792 20.021333 51.114667 6.666667 133.333333-44.501333 177.781334-13.344 11.114667-37.824 26.666667-73.418667 26.666666-24.469333 0-55.616-6.666667-93.44-28.885333-13.344-8.896-17.802667-24.448-8.896-37.781333 8.896-13.333333 24.469333-17.781333 37.824-8.896 44.490667 26.666667 77.866667 28.896 102.336 6.666666 31.146667-26.666667 42.272-84.448 28.917333-115.552-22.24-57.781333-60.064-93.333333-191.328-102.229333-102.336-6.666667-282.549333 144.448-342.613333 204.448a28.224 28.224 0 0 1-40.053333 0 28.149333 28.149333 0 0 1 0-40l0.8-0.778667c17.152-16.906667 238.016-230.122667 384.096-219.232zM752.213333 163.957333c233.6 168.896 182.432 406.688 180.213334 417.802667-4.448 13.333333-17.802667 22.218667-28.928 22.218667h-6.666667c-15.573333-4.437333-24.48-17.781333-20.021333-33.333334 2.218667-8.885333 44.490667-213.333333-157.973334-360.021333-204.672-146.666667-496.117333 40-498.346666 40-13.354667 8.896-31.146667 4.448-37.824-8.885333-8.896-13.333333-4.448-31.114667 8.896-37.781334 13.354667-8.885333 327.04-208.896 560.650666-40z m104.565334-35.552c11.125333 11.114667 13.354667 26.666667 2.229333 40-6.677333 2.218667-13.354667 6.666667-20.021333 6.666667-6.677333 0-13.354667-2.218667-17.802667-6.666667-231.381333-206.677333-502.805333-73.333333-513.92-66.666666-13.354667 6.666667-31.146667 2.218667-37.824-11.114667-6.677333-13.333333-2.229333-31.114667 11.114667-37.781333 2.229333-2.218667 315.925333-157.781333 576.224 75.562666z" fill="#D01837" p-id="12870"></path></svg>