<?xml version="1.0" standalone="no"?>
<!DOCTYPE svg PUBLIC "-//W3C//DTD SVG 20010904//EN"
 "http://www.w3.org/TR/2001/REC-SVG-20010904/DTD/svg10.dtd">
<svg version="1.0" xmlns="http://www.w3.org/2000/svg"
 width="1210.000000pt" height="74.000000pt" viewBox="0 0 1210.000000 74.000000"
 preserveAspectRatio="xMidYMid meet">

<g transform="translate(0.000000,74.000000) scale(0.100000,-0.100000)"
fill="#b81010" stroke="none">
<path d="M11725 730 c4 -6 -45 -10 -139 -10 -91 0 -146 -4 -146 -10 0 -15
-137 -13 -144 3 -5 10 -7 10 -12 0 -3 -7 -14 -13 -25 -13 -10 0 -19 -4 -19
-10 0 -16 -357 -13 -364 3 -5 10 -7 10 -12 0 -7 -16 -164 -18 -164 -3 0 6 -53
10 -140 10 -87 0 -140 4 -140 10 0 6 -9 10 -20 10 -11 0 -20 -4 -20 -10 0 -5
-22 -10 -50 -10 -27 0 -50 -4 -50 -10 0 -6 -37 -10 -90 -10 -53 0 -90 -4 -90
-10 0 -5 -9 -10 -20 -10 -13 0 -20 7 -20 20 0 18 -7 20 -80 20 -47 0 -80 -4
-80 -10 0 -6 -43 -10 -110 -10 -67 0 -110 -4 -110 -10 0 -6 -117 -10 -330 -10
-213 0 -330 4 -330 10 0 6 -73 10 -200 10 -127 0 -200 -4 -200 -10 0 -6 -33
-10 -80 -10 -47 0 -80 -4 -80 -10 0 -6 -50 -10 -129 -10 -94 0 -131 -3 -135
-13 -5 -9 -7 -9 -12 1 -8 17 -360 17 -368 -1 -5 -9 -7 -9 -12 1 -3 6 -14 12
-25 12 -10 0 -19 5 -19 10 0 6 -9 10 -20 10 -12 0 -20 7 -20 16 0 15 -23 44
-34 44 -3 0 -6 -9 -6 -20 0 -11 5 -20 10 -20 6 0 10 -4 10 -10 0 -5 -9 -10
-20 -10 -13 0 -20 7 -20 20 0 18 -7 20 -80 20 -47 0 -80 -4 -80 -10 0 -6 -43
-10 -110 -10 -67 0 -110 -4 -110 -10 0 -5 -22 -10 -50 -10 -27 0 -50 -4 -50
-10 0 -5 -22 -10 -50 -10 -27 0 -50 5 -50 10 0 6 -13 10 -30 10 -16 0 -30 -4
-30 -10 0 -5 -9 -10 -20 -10 -11 0 -20 5 -20 10 0 6 -30 10 -70 10 -40 0 -70
-4 -70 -10 0 -6 -39 -10 -98 -10 -86 0 -99 2 -112 20 -14 19 -26 20 -212 20
-125 0 -198 -4 -198 -10 0 -6 -30 -10 -70 -10 -40 0 -70 -4 -70 -10 0 -6 -30
-10 -70 -10 -40 0 -70 -4 -70 -10 0 -15 -157 -13 -164 3 -5 9 -7 9 -12 -1 -7
-15 -364 -18 -364 -2 0 6 -9 10 -19 10 -11 0 -21 6 -24 13 -2 7 -15 0 -34 -20
-24 -25 -39 -33 -67 -33 -26 0 -36 4 -36 16 0 28 -27 44 -74 44 -39 0 -46 -3
-46 -20 0 -15 -7 -20 -29 -20 -16 0 -32 6 -35 13 -5 10 -7 10 -12 0 -7 -15
-84 -18 -84 -3 0 6 -13 10 -30 10 -16 0 -30 -4 -30 -10 0 -5 -9 -10 -20 -10
-13 0 -20 -7 -20 -20 0 -19 -7 -20 -119 -20 -86 0 -121 -4 -125 -12 -5 -10 -7
-10 -12 0 -7 15 -124 17 -124 2 0 -5 -9 -10 -20 -10 -11 0 -20 5 -20 10 0 6
-13 10 -30 10 -16 0 -30 5 -30 10 0 6 -13 10 -30 10 -16 0 -30 5 -30 10 0 6
-66 10 -179 10 -134 0 -181 3 -185 13 -5 9 -7 9 -12 -1 -3 -6 -23 -12 -45 -12
-21 0 -39 -4 -39 -10 0 -5 -25 -10 -56 -10 -46 0 -60 -4 -76 -22 -13 -15 -21
-19 -26 -11 -4 7 -29 13 -55 14 -26 2 -47 6 -47 11 0 4 -9 8 -20 8 -11 0 -20
-4 -20 -10 0 -5 -9 -10 -19 -10 -11 0 -22 -6 -25 -13 -5 -9 -7 -9 -12 1 -3 7
-25 12 -55 12 -27 0 -49 5 -49 10 0 6 -22 10 -50 10 -27 0 -50 -4 -50 -10 0
-6 -57 -10 -150 -10 -93 0 -150 -4 -150 -10 0 -6 -43 -10 -110 -10 -67 0 -110
4 -110 10 0 6 -9 10 -20 10 -11 0 -20 -4 -20 -10 0 -5 -9 -10 -20 -10 -11 0
-20 5 -20 10 0 6 -22 10 -50 10 -43 0 -50 -3 -50 -20 0 -11 -4 -20 -10 -20 -5
0 -10 5 -10 10 0 6 -37 10 -90 10 -53 0 -90 -4 -90 -10 0 -6 -30 -10 -70 -10
-40 0 -70 -4 -70 -10 0 -5 -9 -10 -20 -10 -11 0 -20 5 -20 10 0 6 -9 10 -20
10 -11 0 -20 5 -20 10 0 6 -50 10 -130 10 -80 0 -130 4 -130 10 0 6 -30 10
-70 10 -40 0 -70 -4 -70 -10 0 -5 -25 -10 -56 -10 -46 0 -60 -4 -77 -23 -13
-15 -21 -18 -24 -9 -3 8 -27 12 -73 12 -45 0 -70 -4 -74 -12 -5 -10 -7 -10
-12 0 -3 7 -25 12 -55 12 -27 0 -49 5 -49 10 0 6 -9 10 -20 10 -11 0 -20 -4
-20 -10 0 -6 -33 -10 -80 -10 -47 0 -80 -4 -80 -10 0 -5 -18 -10 -40 -10 -22
0 -40 5 -40 10 0 6 -9 10 -20 10 -11 0 -20 -4 -20 -10 0 -6 -43 -10 -110 -10
-67 0 -110 -4 -110 -10 0 -5 5 -10 10 -10 6 0 10 -4 10 -10 0 -5 -9 -10 -20
-10 -11 0 -20 -4 -20 -10 0 -5 -22 -10 -50 -10 -27 0 -50 -4 -50 -10 0 -5 -18
-10 -40 -10 -22 0 -40 -4 -40 -10 0 -5 -13 -10 -30 -10 -16 0 -30 5 -30 10 0
6 -13 10 -30 10 -16 0 -30 -4 -30 -10 0 -6 -43 -10 -110 -10 -103 0 -110 -1
-110 -20 0 -11 -4 -20 -10 -20 -5 0 -10 -4 -10 -10 0 -5 14 -10 30 -10 17 0
30 -4 30 -10 0 -5 -13 -10 -30 -10 -16 0 -30 5 -30 10 0 6 -40 10 -100 10 -60
0 -100 -4 -100 -10 0 -6 27 -10 60 -10 53 0 60 -2 60 -20 0 -16 7 -20 30 -20
17 0 30 -3 30 -6 0 -11 -29 -34 -44 -34 -9 0 -16 -4 -16 -10 0 -5 14 -10 30
-10 17 0 30 5 30 10 0 6 14 10 30 10 17 0 30 -4 30 -10 0 -5 13 -10 29 -10 16
0 32 -6 35 -12 5 -10 7 -10 12 0 3 6 19 12 35 12 22 0 29 -5 29 -20 0 -16 -7
-20 -30 -20 -16 0 -30 -4 -30 -10 0 -6 33 -10 80 -10 47 0 80 4 80 10 0 6 18
10 40 10 33 0 40 -3 40 -20 0 -18 -7 -20 -80 -20 -73 0 -80 -2 -80 -20 0 -15
7 -20 29 -20 16 0 32 6 35 13 5 9 7 9 12 0 4 -10 51 -13 185 -13 113 0 179 -4
179 -10 0 -5 17 -10 38 -10 26 0 42 6 52 20 15 21 70 28 70 10 0 -6 67 -10
180 -10 113 0 180 -4 180 -10 0 -6 107 -10 300 -10 193 0 300 4 300 10 0 6 46
10 119 10 86 0 121 4 125 13 5 9 7 9 12 0 8 -18 180 -18 188 0 5 9 7 9 12 0 3
-7 23 -13 45 -13 21 0 39 -4 39 -10 0 -6 27 -10 60 -10 33 0 60 4 60 10 0 6 9
10 20 10 11 0 20 -4 20 -10 0 -6 76 -10 209 -10 158 0 211 -3 215 -13 5 -9 7
-9 12 0 7 15 104 18 104 3 0 -6 33 -10 80 -10 47 0 80 4 80 10 0 6 23 10 50
10 28 0 50 -4 50 -10 0 -6 30 -10 70 -10 40 0 70 -4 70 -10 0 -5 9 -10 20 -10
11 0 20 -4 20 -10 0 -5 9 -10 20 -10 11 0 20 5 20 10 0 14 37 12 44 -2 5 -10
7 -10 12 -1 4 10 49 13 173 13 155 0 168 1 181 20 13 17 26 20 102 20 52 0 88
-4 88 -10 0 -6 27 -10 60 -10 33 0 60 4 60 10 0 6 27 10 60 10 33 0 60 4 60
10 0 6 9 10 20 10 11 0 20 -4 20 -10 0 -6 27 -10 60 -10 33 0 60 -4 60 -10 0
-16 557 -13 562 2 6 17 38 -14 38 -36 0 -19 16 -21 24 -3 5 9 7 9 12 0 7 -15
64 -18 64 -3 0 6 23 10 50 10 28 0 50 -4 50 -10 0 -6 37 -10 90 -10 53 0 90 4
90 10 0 6 5 10 10 10 6 0 10 -9 10 -20 0 -16 7 -20 30 -20 23 0 30 4 30 20 0
11 5 20 10 20 6 0 10 -4 10 -10 0 -5 9 -10 20 -10 11 0 20 5 20 10 0 6 9 10
20 10 13 0 20 7 20 20 0 13 7 20 20 20 13 0 20 -7 20 -20 0 -16 7 -20 30 -20
17 0 30 -4 30 -10 0 -5 23 -10 50 -10 28 0 50 5 50 10 0 6 9 10 20 10 11 0 20
5 20 10 0 18 35 11 50 -10 12 -17 26 -20 92 -20 45 0 78 -4 78 -10 0 -6 40
-10 100 -10 60 0 100 4 100 10 0 6 53 10 140 10 87 0 140 4 140 10 0 6 14 10
30 10 23 0 30 4 30 20 0 11 5 20 10 20 6 0 10 -4 10 -10 0 -5 5 -10 10 -10 6
0 10 9 10 20 0 11 5 20 10 20 6 0 10 -9 10 -20 0 -19 7 -20 236 -20 230 0 237
1 255 22 11 11 22 18 27 13 4 -4 1 -10 -5 -12 -7 -3 -13 -13 -13 -24 0 -14 7
-19 30 -19 17 0 30 -4 30 -10 0 -5 9 -10 20 -10 11 0 20 5 20 10 0 6 9 10 20
10 11 0 20 5 20 10 0 6 9 10 20 10 11 0 20 -4 20 -10 0 -15 77 -12 83 3 4 9 8
8 16 -3 10 -13 12 -13 22 0 8 11 12 12 16 3 6 -15 63 -18 63 -3 0 6 23 10 50
10 28 0 50 -4 50 -10 0 -6 40 -10 100 -10 60 0 100 -4 100 -10 0 -5 14 -10 30
-10 17 0 30 5 30 10 0 6 14 10 30 10 17 0 30 5 30 10 0 6 9 10 20 10 11 0 20
5 20 10 0 6 9 10 20 10 11 0 20 -4 20 -10 0 -5 14 -10 30 -10 17 0 30 -4 30
-10 0 -5 23 -10 50 -10 28 0 50 5 50 10 0 6 9 10 20 10 11 0 20 5 20 10 0 18
35 11 50 -10 12 -17 26 -20 92 -20 45 0 78 -4 78 -10 0 -6 40 -10 100 -10 60
0 100 4 100 10 0 6 53 10 140 10 87 0 140 4 140 10 0 6 14 10 30 10 17 0 30 5
30 10 0 6 9 10 19 10 11 0 22 6 25 13 5 9 7 9 12 0 8 -19 500 -19 507 0 2 7 8
8 13 3 5 -5 4 -11 -3 -13 -24 -9 -13 -23 17 -23 17 0 30 -4 30 -10 0 -5 9 -10
20 -10 11 0 20 5 20 10 0 6 9 10 20 10 11 0 20 5 20 10 0 6 9 10 20 10 11 0
20 -4 20 -10 0 -13 77 -13 82 0 2 6 155 10 410 10 304 1 408 4 412 13 5 9 7 9
12 0 7 -16 684 -19 684 -3 0 6 53 10 140 10 87 0 140 4 140 10 0 6 9 10 20 10
11 0 20 5 20 10 0 6 9 10 20 10 11 0 20 5 20 10 0 6 9 10 20 10 17 0 20 7 20
40 0 22 5 40 10 40 6 0 10 9 10 19 0 11 6 22 13 24 9 4 9 8 -2 15 -12 9 -9 16
17 40 40 37 40 47 2 82 -16 15 -30 33 -30 40 0 16 -26 40 -44 40 -9 0 -16 8
-16 20 0 13 -7 20 -20 20 -16 0 -20 7 -20 30 0 17 -4 30 -10 30 -5 0 -10 9
-10 20 0 16 -7 20 -30 20 -16 0 -30 5 -30 10 0 6 -8 10 -18 10 -10 0 -24 9
-32 20 -8 12 -26 20 -42 20 -15 0 -28 5 -28 10 0 6 -5 10 -11 10 -5 0 -7 -4
-4 -10z m175 -140 c0 -5 -4 -10 -10 -10 -5 0 -10 5 -10 10 0 6 5 10 10 10 6 0
10 -4 10 -10z m-11420 -236 c0 -14 -31 -34 -54 -34 -14 0 -26 -4 -26 -10 0 -5
-18 -10 -40 -10 -22 0 -40 5 -40 10 0 6 17 10 38 10 26 0 42 6 52 20 13 18 70
30 70 14z m960 -224 c0 -5 -4 -10 -10 -10 -5 0 -10 5 -10 10 0 6 5 10 10 10 6
0 10 -4 10 -10z m5620 -10 c0 -11 -4 -20 -10 -20 -5 0 -10 9 -10 20 0 11 5 20
10 20 6 0 10 -9 10 -20z m2400 10 c0 -5 -4 -10 -10 -10 -5 0 -10 5 -10 10 0 6
5 10 10 10 6 0 10 -4 10 -10z"/>
<path d="M10080 710 c0 -5 5 -10 10 -10 6 0 10 5 10 10 0 6 -4 10 -10 10 -5 0
-10 -4 -10 -10z"/>
<path d="M420 510 c0 -5 18 -10 40 -10 22 0 40 -4 40 -10 0 -5 23 -10 50 -10
28 0 50 5 50 10 0 6 14 10 30 10 17 0 30 -4 30 -10 0 -15 70 -12 86 4 8 8 14
17 14 20 0 3 -76 6 -170 6 -107 0 -170 -4 -170 -10z"/>
<path d="M310 150 c0 -5 11 -10 25 -10 14 0 25 5 25 10 0 6 -11 10 -25 10 -14
0 -25 -4 -25 -10z"/>
</g>
</svg>
