<?xml version="1.0" standalone="no"?><!DOCTYPE svg PUBLIC "-//W3C//DTD SVG 1.1//EN" "http://www.w3.org/Graphics/SVG/1.1/DTD/svg11.dtd"><svg t="1757354872035" class="icon" viewBox="0 0 1137 1024" version="1.1" xmlns="http://www.w3.org/2000/svg" p-id="15096" xmlns:xlink="http://www.w3.org/1999/xlink" width="222.0703125" height="200"><path d="M133.195563 513.160001c-7.176336-1.456068-12.792598-4.472209-12.515252-12.445916h-16.155422a110.141151 110.141151 0 0 0 9.360438 58.208056l3.466828-17.334144a161.034198 161.034198 0 0 1 8.840414 23.435763c0.624029 3.050809-3.050809 6.933658-4.541546 10.019135h6.552307a38.135117 38.135117 0 0 0 4.402872-33.489566c-0.589361-3.224151 6.517638-7.835033 9.984467-11.717881l7.800365 9.464442 5.754936 18.720876 8.90975-9.915131c0.762702 0.485356 2.080097 0.866707 2.322775 1.594742a45.068775 45.068775 0 0 0 19.171563 21.390333 12.861935 12.861935 0 0 1 1.213391 18.339525l7.973706 25.619865c3.709507 2.808131 9.672452 5.06157 9.984467 7.939038 1.144054 10.885842 9.083091 12.723262 17.334144 15.462056 0 0.797371 0.728034 1.872088 0.485356 2.738795-2.114766 7.765697-4.402873 14.630018 5.234911 20.384953 4.368204 2.600122 4.888229 10.955179 8.459063 15.670067 6.517638 8.528399 14.838027 15.704735 7.245672 28.254654-0.797371 1.317395 6.933658 7.835033 10.608496 11.891223l7.731028-2.669458c16.120754 14.422008 22.603724 37.095068 45.935482 42.364648-2.600122 5.754936-1.733414 8.147048 5.442921 9.672453s15.39272 2.63479 17.091466 9.880462l13.520633 9.429774-1.4214 2.773463h9.221765c2.045429 0 5.165575 0.20801 5.85894 1.4214 3.466829 6.101619 6.586975 12.584589 10.192477 19.726256h19.102227l-3.258819 17.091466 30.612098 7.349677-6.933658 11.33653a24.267802 24.267802 0 0 0 4.888229-1.074717c5.824272-2.946804 9.568448-10.920511 18.02751-7.557686a53.701178 53.701178 0 0 0 5.858941 2.461448c5.546926 1.456068 11.093852 2.946804 16.744783 3.84818a26.763918 26.763918 0 0 1 11.683213 2.63479l-6.066951 5.512258 18.928886 3.84818c2.565453 0.485356 5.130907 0.936044 7.731028 1.248058 12.064564 1.4214 24.267802 2.877468 36.263029 4.021521 1.21339 0 2.63479-2.010761 3.952185-3.050809a17.334144 17.334144 0 0 1 25.203846 0.20801c6.760316-6.413633 20.800973 2.080097 23.88645-13.381959 2.63479 10.192477 10.400486 9.013755 16.294096 8.875081a82.129175 82.129175 0 0 0 19.206231-5.269579l0.762703-6.656312c6.933658-1.178722 12.203237-2.461448 17.507485-2.842799a40.284551 40.284551 0 0 1 17.334144 1.976092l14.630018-11.024516 2.808131 3.085478a26.694582 26.694582 0 0 1 19.310237-24.822494 60.669504 60.669504 0 0 0 14.109993-8.251053 94.332412 94.332412 0 0 0 9.152428-8.459062c4.85356 1.040049 10.400486 2.461448 10.677833-8.70174a16.675447 16.675447 0 0 1 14.699354-15.184711c4.541546-0.589361 8.043043-6.933658 12.688593-9.741789a17.958173 17.958173 0 0 1 12.237906-1.490736l8.805745-10.192477-1.352063-10.088472 6.413633 1.560073 7.661692-21.286329 13.416627 3.466829-5.824272-6.205623 8.70174-12.445916 2.149434 1.248059c3.986853-7.384345 8.077711-14.248666 11.405867-21.494339 1.317395-2.8428 0.173341-6.933658 1.4214-9.741789a161.623559 161.623559 0 0 1 15.254047-32.692196 46.663516 46.663516 0 0 0 7.69636-22.985075 37.26841 37.26841 0 0 1 6.933657-15.254046 69.752596 69.752596 0 0 1 11.059184-10.400487c0.762702-2.704126 0.693366-7.592355 3.05081-9.741789 7.557687-6.933658 7.90437-6.448302 5.442921-16.120754l10.643164-5.477589-2.669458-6.656312h6.309628c-13.867315-6.933658-10.781838-18.894217-10.400486-29.988069 7.973706-2.045429 5.200243-3.709507 8.459062-9.152428 5.130907-8.632404-0.624029-15.18471 0-22.534387a27.94264 27.94264 0 0 1 4.298868-8.285721c-8.667072-9.811126 3.813512-15.115374 7.661692-23.817114l-14.907364-1.906756-0.693366-1.733414 10.781838-4.021522-7.557687-5.512258a29.190699 29.190699 0 0 1 3.466829-4.229531c5.997614-5.026902 15.18471-8.667072 6.933657-19.102226-0.658697-0.832039 1.906756-4.194863 3.466829-6.933658-10.400486-2.080097-13.208618-9.013755-13.173949-18.547534 0-2.773463-2.8428-5.824272-4.922897-8.285721a94.7831 94.7831 0 0 0-9.152428-8.147048l10.608496-1.282727a84.486618 84.486618 0 0 0-3.466829-19.552914 79.737063 79.737063 0 0 0-11.197857-14.907364 38.620473 38.620473 0 0 1-4.818892-7.69636c-4.749555-11.163189-3.744175-12.515252 8.49373-12.376579a17.334144 17.334144 0 0 0-16.016749-13.693974c-4.264199-0.866707-7.349677-7.349677-12.653925-13.139281l8.563067-15.808739-14.387339 1.594741c5.06157-19.344905-5.546926-29.36404-23.539768-33.00421l4.749556-7.48835c-2.045429-0.728034-4.125526-1.317395-6.066951-2.149434s-5.234912-1.594741-5.858941-3.189483a107.021005 107.021005 0 0 1-7.315008-22.430382 18.270188 18.270188 0 0 0-24.094461-13.000608c-10.712501-10.400486-21.147656-20.315617-31.444137-30.438757-5.962946-5.858941-11.683213-11.925891-18.02751-17.334144l-10.400486-15.219379-2.808131-20.072939 8.805745-5.269579-13.38196-5.789605c2.981473-5.442921 5.928277-10.400486 8.389726-15.600729 0.520024-1.109385-1.144054-3.050809-1.109385-4.610883 0-6.933658 0-14.248666 9.949799-14.248666-2.253439-17.126134-2.253439-17.126134 22.534387-18.928885l-11.787218-12.75793 12.168569-6.517638-3.466829-7.973707c5.304248-1.768083 10.400486-3.189483 15.254047-5.130906a62.402919 62.402919 0 0 0 7.869702-4.47221c2.045429-1.178722 4.229531-3.466829 6.170955-3.466828a22.118368 22.118368 0 0 0 18.720875-9.949799 8.771077 8.771077 0 0 1 15.219379 2.253439c5.824272 10.747169 11.54454 17.334144 26.833255 14.144661 9.291101-1.941424 20.800973 6.517638 31.201459 10.192477 5.824272 2.045429 11.787218 3.709507 17.576822 5.893609a25.585197 25.585197 0 0 1 10.400487 5.06157 34.876298 34.876298 0 0 0 26.070552 10.400486 39.729858 39.729858 0 0 1 34.980303 36.609713 39.868531 39.868531 0 0 0 9.32577 17.334144 65.00304 65.00304 0 0 0 40.977916 32.206839 23.470431 23.470431 0 0 1 19.171564 15.358052 13.139281 13.139281 0 0 0 17.334144 9.152428c13.381959-3.709507 14.109993-2.253439 17.334144 12.064564 1.941424 8.805745 7.835033 17.715495-1.109386 26.001217a32.241508 32.241508 0 0 0 4.957566 4.818892 369.979971 369.979971 0 0 1 34.252268 21.633011c4.576214 3.466829 5.685599 11.683213 9.221765 19.726256l7.48835 3.466829-6.933657 13.867315 9.741789 3.882849c-1.248058 23.227753-4.541546 47.18354 18.027509 62.125572-2.21877 7.90437-4.229531 14.422008-5.789604 21.008983a7.315009 7.315009 0 0 0 0.936044 5.997613c7.973706 6.933658 3.709507 13.693974 0 20.419622l11.75255 2.253439 5.581594 13.867315a254.395898 254.395898 0 0 0-7.48835 27.734631 45.831477 45.831477 0 0 0 5.200243 31.513474 20.384953 20.384953 0 0 1 3.466829 21.875689 102.098109 102.098109 0 0 0-5.234912 32.588191c-0.173341 1.594741 2.63479 3.466829 3.154815 5.26958 1.00538 3.466829 3.224151 8.90975 1.664077 10.712501-5.200243 6.06695-3.085478 9.152428 1.906756 13.867315 5.754936 5.234912 0 13.381959-7.904369 14.942032l-5.512258 32.518855c-13.104613 1.906756-16.81412 8.563067-12.376579 20.800973a60.392158 60.392158 0 0 1 0.970712 13.451295c0.589361 5.442921 1.525405 10.885842 2.461448 17.334144l-16.155422 19.483578 1.976093 6.240292-25.758538 32.484186c8.008375 8.008375 6.378965 13.867315-3.154815 21.216993a84.347945 84.347945 0 0 0-11.787218 13.451295l4.160195 0.658698c3.154814 4.160195 9.291101 8.771077 8.771077 12.411247-1.074717 7.315009-3.050809 16.432769-12.96594 18.02751-11.440535 1.802751-3.466829 12.723262-8.70174 17.8195-1.456068 1.456068 0.901375 6.170955-4.680219 6.136287-1.317395 0-8.008375 1.352063-4.090858 7.939038 2.392112 4.05619-4.472209 6.933658-8.528399 5.26958l-16.883456 16.60611a18.200851 18.200851 0 0 1 5.685599 3.016141 5.47759 5.47759 0 0 1 0.381351 5.408253 6.06695 6.06695 0 0 1-5.408253 0.658697 72.803405 72.803405 0 0 1-6.933658-4.05619c-0.554693-0.277346-1.768083 0.866707-2.669458 1.317395 2.704126 5.47759-2.877468 14.38734-8.528399 16.120754-3.258819 1.00538-5.685599 4.784224-8.389725 7.453682-0.693366 0.693366-0.970712 2.738795-1.282727 2.704127-9.464443-0.901375-11.717881 6.933658-16.571442 12.411247a21.216992 21.216992 0 0 0-6.760316 15.080705c0 0.520024-1.872088 0.901375-2.565453 1.62941a36.089688 36.089688 0 0 0-8.11238 11.440535 101.26607 101.26607 0 0 0-9.256433 7.973706c-7.48835 8.112379-13.416628 18.512866-27.73463 13.867315-2.114766-0.693366-6.69098 2.600122-8.597736 5.165575-7.523019 10.400486-12.931271 12.341911-23.019743 7.453682a20.142275 20.142275 0 0 1-17.715495 21.147656 9.603116 9.603116 0 0 0-6.48297 6.27496l-26.382567 3.466829-0.346683-2.184102c-4.992233 2.253439-10.088472 4.264199-14.907364 6.933658-5.789604 3.085478-10.019135 6.933658 2.045429 13.867315-10.677833 1.074717-17.334144 1.317395-23.955787 2.496117-5.06157 0.901375-11.995228-1.317395-13.624637 7.28034-0.312015 1.664078-5.200243 3.744175-7.731029 3.466829a48.292925 48.292925 0 0 0-28.636006 6.933658 206.068305 206.068305 0 0 1-38.932487 11.787217c-8.736409 2.461448-17.334144 5.408253-26.278563 6.933658-7.939038 1.490736-16.155422 1.282727-24.267801 2.184102a86.081359 86.081359 0 0 0-13.035277 2.738795c-10.12314 2.773463-20.176944 5.824272-30.334752 8.632404a7.661692 7.661692 0 0 1-4.922897 0c-7.176336-3.466829-14.213998-7.349677-20.03827-10.400487a42.295312 42.295312 0 0 1-31.201459 9.53378c-7.419014 0-14.872696-2.63479-22.29171-2.461449a136.939738 136.939738 0 0 0-21.320997 3.64017 120.853652 120.853652 0 0 0-19.691588 0.20801 27.387948 27.387948 0 0 1-21.147655-6.933658c-2.21877-1.560073-5.234912-4.749555-6.725648-4.160194-10.400486 3.917517-16.155422-3.986853-24.683821-8.528399 8.389726-2.322775 11.648545-5.928277 5.546926-13.520632-1.386732-1.733414 1.282727-6.725648 2.253438-11.128521-2.565453 1.248058-6.06695 1.872088-7.661691 3.917517-8.043043 10.400486-18.82488 8.944418-30.334752 10.816506a100.711377 100.711377 0 0 1-43.716712-8.597736 111.493215 111.493215 0 0 1-11.995227-1.976092l-34.668289-19.206232 6.933658-3.709507a24.267802 24.267802 0 0 0-25.30785-7.69636c-4.437541 1.248058-10.12314-1.698746-15.219379-2.842799-1.62941-0.346683-3.189483-1.21339-4.818892-1.490737s-5.304248 0.381351-5.720267-0.485356c-5.858941-12.099233-20.45429-9.776457-28.670675-17.784832-0.762702-0.728034-2.010761-1.074717-2.496116-1.906755-8.008375-13.867315-23.643773-17.056798-35.743005-25.065173a58.693412 58.693412 0 0 0-14.248667-3.466829 12.480584 12.480584 0 0 1-10.400486-13.693973c0-1.837419-2.010761-3.882848-4.784224-5.165575l1.178722 5.616262-1.62941 0.970712c-1.62941-1.941424-4.472209-3.778843-4.680219-5.893609-1.317395-11.960559-9.360438-15.947413-19.171563-20.627631-5.26958-2.530785-6.933658-12.272574-10.400486-18.755544l2.565453-2.530785a117.386824 117.386824 0 0 1-17.334144-3.466829c-2.738795-0.970712-6.448302-4.610882-6.48297-6.933657 0-14.38734-4.85356-24.267802-20.523627-26.93726-3.120146-0.554693-6.136287-5.685599-7.869701-9.360438-3.085478-6.448302-5.096238-13.416628-7.627023-20.107607a6.933658 6.933658 0 0 0-2.218771-3.466829c-13.000608-7.245672-12.861935-21.45967-17.8195-32.969542a31.652147 31.652147 0 0 0-4.090858-5.858941 25.238514 25.238514 0 0 1-5.442921-10.400486c-6.933658-3.050809-8.667072-7.211004-5.130907-14.699354 1.282727-2.704126 0.450688-9.083091-1.490736-10.400487-11.75255-6.933658-7.419014-18.859549-9.915131-28.532001a34.668288 34.668288 0 0 0-6.933657-17.992841c-3.016141-3.258819 0-12.203237 0.485356-19.206232l-7.765697-4.05619 8.736409-11.683213-22.88107-23.782445a52.903808 52.903808 0 0 0-7.453682-35.881679c12.96594-4.784224 1.594741-15.670066 6.309628-22.811733l-12.307242-6.101619 11.579208-1.074717-3.466829-6.933658c7.453682-7.315009 7.280341-6.933658 6.240292-7.661691-4.160195-2.600122-8.181716-5.373585-13.035276-8.597736 2.877468-9.949799 7.419014-1.21339 11.717881 0.242678a53.389164 53.389164 0 0 0 9.395106-9.048423 10.573828 10.573828 0 0 0-0.79737-8.355057 83.689248 83.689248 0 0 0-7.453682-10.989848l-15.670067-0.901375c9.256433-13.867315 16.883456-2.357444 24.059792-2.114766l10.816506-13.139281-14.734022-17.022129 11.821886-1.698746-17.334144-6.69098 15.011369-6.378965-6.933658-5.650931 13.139281-5.581594-0.312014-1.525405H27.977309l2.877467-10.400487-11.509871 8.944419-10.400487-4.922897 17.334144-11.301862-0.832039-1.768083H19.414241c-9.776457-8.389726 9.048423-19.968934-1.525404-26.31323 0.20801-5.165575 0-9.152428 0.589361-13.035277 0.624029-5.581594 0-12.584589 2.946804-16.3981 4.541546-5.650931 2.704126-11.024516 3.466829-16.710115a193.726394 193.726394 0 0 1 3.952185-23.08908c1.906756-8.216384 4.368204-16.328764 6.933657-24.267802 0.762702-2.392112 2.981473-4.264199 3.882849-6.656311 2.738795-7.176336 5.234912-14.422008 7.69636-21.702348 0.728034-2.149434 0.485356-4.85356 1.664077-6.621643 5.47759-8.112379 11.475203-15.878076 17.02213-23.990456 9.845794-14.38734 14.595349-32.033498 30.022737-42.91934 5.616263-3.952185 7.349677-13.173949 12.723262-17.750164a16.675447 16.675447 0 0 1 15.427388-1.872087c5.858941 3.466829 0.520024 8.077711-2.565453 12.029896-4.264199 5.442921-7.835033 11.475203-12.688593 18.720875l-3.674839-0.901375a183.256571 183.256571 0 0 0-12.688593 41.185926 56.09329 56.09329 0 0 1-9.32577 23.817114 26.555909 26.555909 0 0 1-13.381959 12.931271c-1.698746 0.866707-4.194863 3.917517-3.813512 4.645551 4.333536 8.181716-6.933658 17.334144 1.906756 25.134509a2.42678 2.42678 0 0 1 0.312015 2.010761 99.705997 99.705997 0 0 0-2.288107 27.318611 109.96781 109.96781 0 0 1-6.933658 28.115981l-2.63479 9.499111-11.579208 2.496117c-8.181716-2.877468-15.288715 2.184102-17.923505 12.896603 9.741789 0.658697 16.467437-2.530785 17.715495-13.173949a31.201459 31.201459 0 0 1 4.749556 29.537381 105.044913 105.044913 0 0 0 0.693365 40.665902l1.906756-9.325769h2.080097l2.565454 11.752549 6.06695-10.192476 1.941424 0.450687v14.664686c0 17.091466-0.450688 34.2176-0.277346 51.309067a9.984467 9.984467 0 0 0 5.650931 7.973706l0.658697-14.699354 3.882849-0.173342 1.872087 20.176944-11.995227 0.589361 4.922897 48.535603-2.877468 0.41602-6.933658-36.540376-2.669458 0.346683 3.466829 33.142883-2.218771 0.589361-4.160194-6.933657-1.698746 0.485356 8.355057 46.143491 2.565453-0.346683-3.466829-21.320997h12.584589l9.152428 37.025732 3.085478-0.485356v-16.051418l1.906756-0.346682a23.851782 23.851782 0 0 0 2.496116 6.101618 46.143492 46.143492 0 0 0 6.205624 5.650931c2.21877-2.704126 5.685599-5.096238 6.344297-8.147048s-1.941424-6.69098-2.253439-10.12314c-0.450688-5.373585-6.101619-10.400486 2.496117-16.467437 3.050809-2.114766 0.520024-17.334144-3.674839-23.67844a58.000046 58.000046 0 0 1-9.741789-30.508094l2.808131-0.866707 2.392112 10.157808h2.426781v-24.475811l-9.637785 1.317395c-0.936044-10.12314-1.733414-19.934266-2.808131-29.676055 0-1.248058-1.62941-3.466829-2.42678-3.466829a4.992233 4.992233 0 0 0-3.64017 2.461449c-1.525405 3.466829-2.530785 6.933658-3.744175 10.400486l-3.466829-0.901375 2.946804-45.068775 9.880462 16.744783s-2.42678 0.381351-3.050809 1.62941a50.511696 50.511696 0 0 0-2.63479 9.152428c2.669458-0.832039 5.408253-1.490736 8.008375-2.530785 4.992233-2.010761 9.91513-4.264199 13.312622-5.720268l10.088472 17.02213 3.466829-1.62941-0.936044-6.933657h21.147656l-3.744175-4.541546 5.893609-4.749555c-9.91513-2.8428-7.627023-8.736409-5.026902-14.38734l34.668288 6.621643c-5.789604 5.824272-8.216384 11.12852-11.960559 3.050809a5.893609 5.893609 0 0 0-4.333536-2.704126c-0.970712 0-2.496117 2.045429-2.981473 3.466829-1.941424 5.685599-3.466829 11.475203-5.373585 17.334144a60.738841 60.738841 0 0 1 15.947413 3.466829c2.114766 1.00538 2.253439 6.933658 2.496117 10.885842 0.866707 13.624637 1.352063 27.249274 1.976092 40.631234-4.888229-4.368204-8.667072-10.400486-13.139281-10.920511-3.466829-0.450688-8.008375 5.720268-12.064564 8.944418z m44.514082 249.993026l-11.405867-24.267802-7.939038 3.466829 19.587583 20.800973c4.506877 6.448302 9.013755 12.931271 13.589969 19.310236a185.128659 185.128659 0 0 0 13.312623 18.131515 199.793345 199.793345 0 0 0 17.888836 15.323383c-0.242678-3.64017 0.797371-8.043043-0.936044-10.400486a537.011783 537.011783 0 0 0-30.438757-36.401703c-3.085478-3.466829-9.048423-4.090858-13.659305-6.101619z m289.064186 177.882986c-5.546926-7.800365-12.688593-7.835033-17.750163 0a12.896603 12.896603 0 0 0 17.992841-0.346683l2.253439 9.221765a92.94568 92.94568 0 0 0-15.739403-2.218771 11.613877 11.613877 0 0 0-7.661691 4.333536 39.313839 39.313839 0 0 0-4.194863 9.568448l15.150042 12.723262 1.941424-2.63479-8.944418-6.413634 11.648544 1.768083v-8.49373c4.541546-4.922897 17.334144 8.424394 14.248667-9.845794l20.800973 2.565453 0.208009 3.466829-12.792598 4.229531v1.560073l14.803359 1.733414-1.178722-3.293487a44.54875 44.54875 0 0 1 11.925891-7.211004 76.270234 76.270234 0 0 1 16.952793-0.312015v-3.120145a177.466967 177.466967 0 0 0-24.718489-6.136287c-11.440535-1.282727-23.227753-0.866707-34.945635-1.144054z m-113.122624-49.090296c-2.704126 0.901375-5.512258 2.912136-6.933657 2.184102a178.403011 178.403011 0 0 1-21.251661-11.995227c-4.888229-3.293487-8.459062-5.754936-14.664686-1.525405a119.570926 119.570926 0 0 1-21.494339 9.291101c0.312015 0.520024 0.866707 2.877468 2.288107 3.466829 11.232525 5.720268 22.915738 10.573828 33.870918 16.779451 9.32577 5.26958 15.843408 4.749555 21.598343-3.917516l9.741789 1.352063z m-239.904554-214.943386l-2.253438 0.936043a226.037239 226.037239 0 0 0 8.736408 24.059792 16.779451 16.779451 0 0 0 9.880462 9.11776 15.496725 15.496725 0 0 0 11.75255-6.27496c1.490736-2.045429-0.693366-7.661692-2.496117-11.024516-3.466829-6.656311-8.389726-12.619257-11.925891-19.310236a31.409469 31.409469 0 0 1-5.789604-16.328764c1.594741-10.851174-8.563067-12.168569-12.237906-18.686207a104.594225 104.594225 0 0 0 7.315009 23.262421l9.256433 22.777066-3.466829 1.733414z m112.39459 136.974406c3.778843 16.259427 16.467437 21.182324 25.342519 29.36404a4.610882 4.610882 0 0 0 4.05619 0.589361c1.698746-0.693366 4.021521-2.114766 4.229531-3.466829s-1.490736-5.06157-2.42678-5.096238c-13.797979-0.589361-19.136895-13.139281-31.20146-21.494339z m-72.595395-63.165621c8.112379 21.494339 15.878076 29.017357 27.734631 25.099841-14.803359-2.946804-12.688593-21.494339-27.734631-25.203846z m21.355666 33.316225l19.587582 21.66768c3.917517-8.944418-4.922897-19.102227-19.691587-21.771685z m-37.441752-163.946335c-13.624637 0.762702-4.506877-7.557687-3.189482-14.630017l-9.291101 5.442921 12.480583 30.265416zM27.734631 380.068443l10.643164 18.998222 3.120146-18.998222z m33.420229-94.332412l-16.3981 10.643164 18.23552 4.05619zM144.774771 740.514634c6.170955-9.152428 4.610882-12.96594-5.893609-16.536773-2.42678 4.992233-2.42678 4.992233 5.928278 16.467437z m467.779212 210.679187l-0.346683-2.981472c-8.632404-1.074717-17.334144-4.368204-25.377187 2.981472z m-334.722322-75.958219l1.802751-4.021521-19.136895-9.984467c0.242678 2.21877-0.416019 6.760316 1.00538 7.557687a114.960043 114.960043 0 0 0 16.363432 6.378965z m194.766443-11.509871c-13.589969 2.496117-5.720268 9.741789-5.200243 16.120753 11.163189-3.570834 5.304248-10.33115 5.234911-16.294095z m-239.696544-26.590577l-0.554693-3.224151-13.139281-8.181716-2.565453 1.872087a33.801581 33.801581 0 0 0 6.933657 8.667072c2.357444 1.456068 6.170955 0.589361 9.360438 0.797371zM150.217692 471.974075l-18.790212 3.466828c4.610882 2.010761 8.459062 5.234912 11.405867 4.541546s5.026902-5.26958 7.419014-8.181716z" fill="#000000" p-id="15097"></path></svg>